<?xml version="1.0" encoding="UTF-8"?>
<!DOCTYPE svg PUBLIC "-//W3C//DTD SVG 1.1//EN" "http://www.w3.org/Graphics/SVG/1.1/DTD/svg11.dtd">
<!-- Creator: CorelDRAW -->
<svg xmlns="http://www.w3.org/2000/svg" xml:space="preserve" width="33.0728mm" height="33.0728mm" version="1.1" style="shape-rendering:geometricPrecision; text-rendering:geometricPrecision; image-rendering:optimizeQuality; fill-rule:evenodd; clip-rule:evenodd"
viewBox="0 0 3307.28 3307.28"
 xmlns:xlink="http://www.w3.org/1999/xlink"
 xmlns:xodm="http://www.corel.com/coreldraw/odm/2003">
 <defs>
  <style type="text/css">
   <![CDATA[
    .fil0 {fill:black}
    .fil2 {fill:#008CFF}
    .fil1 {fill:#F2F2F2}
   ]]>
  </style>
 </defs>
 <g id="Слой_x0020_1">
  <metadata id="CorelCorpID_0Corel-Layer"/>
  <g id="_2889753200336">
   <path class="fil0" d="M800.49 2450.71c-146.74,-133 -270.51,-376.04 -315.49,-582.09 -56.71,-259.77 -20.26,-548.5 81.06,-758.68 54.92,-113.91 103.41,-188.95 174.18,-274.34 387.41,-467.46 1093.89,-567.13 1600.09,-212.69 172.27,120.62 321.75,290.19 407.7,486.16 46.63,106.34 84.34,219.5 99.76,348.89 37.54,315.09 -43.33,625.26 -229.56,872.01l-62.64 77.91c-11.35,12.15 -29.22,28.6 -38.68,43.09 -14.12,-3.81 -47.43,-29.14 -65.41,-38.68 -24.66,-13.09 -41.18,-21.83 -65.9,-33.45 -125.89,-59.18 -343.59,-108.02 -418.12,-187.94 -24.26,-26.02 -21.47,-36.77 -23.15,-79.45 -1.32,-33.51 -1.35,-65.85 -1.1,-99.36 0.2,-26.77 -3.94,-26.11 10.5,-41.88 39.38,-43.05 75.83,-99.37 98.88,-154.49l25.69 -73.69c8.33,-19.72 55.85,-28.3 83.27,-115.33 16.45,-52.2 25.64,-121.53 2.46,-173.3 -20.65,-46.09 -21.25,-19.26 -7.56,-75.04 6.67,-27.16 12.45,-53.45 17.34,-81.7 92.14,-531.57 -228.71,-542.44 -253.65,-568.68 -65.33,-68.76 -164.48,-89.71 -260.14,-89.68 -493.92,0.15 -585.01,370.82 -495.81,753.42 10.14,43.49 -2.63,31.84 -17.21,69.79 -20.06,52.22 -9.47,118.51 7.16,169.5 30.53,93.54 74.25,86.19 84.01,118.25 16.91,55.52 34.29,95.39 61.89,139.89 62.16,100.21 69.7,61.6 71.62,129.81 0.94,33.68 -0.44,62.98 -2.21,96.08 -2.33,43.73 -0.68,49.94 -22.83,76.83 -46.74,56.72 -208.38,106.82 -273.28,130.66 -69.75,25.61 -146.85,54.37 -210.53,90.79 -17.59,10.07 -46.06,30.52 -62.34,37.39zm758.94 -2151.05c-324.2,31.06 -564.17,136.42 -801.64,351.46 -31.45,28.48 -51.73,53.81 -80.43,83.87 -92.05,96.38 -192.57,256.59 -248.83,408.66 -130.84,353.68 -112.21,744.49 64.52,1076.5 40.98,76.99 79.38,135.78 128.87,199.88 31.31,40.57 115.92,136.99 158.33,170.41l90.57 73.81c89.83,68.63 206.83,133.97 317.65,175.58 443.03,166.34 909.3,89.51 1277.87,-192.65 31.95,-24.46 59.83,-50.61 88.1,-76.15 53.25,-48.1 110.88,-114.63 155.45,-173.45 186.44,-246.06 280.64,-562.96 257.86,-885.17 -18.86,-266.69 -122.03,-515.02 -274.93,-711.19 -11.63,-14.92 -25.16,-30.1 -36.87,-45.35 -67.18,-87.52 -215.05,-208.83 -309.92,-265.4 -230.35,-137.35 -497.98,-218.47 -786.6,-190.81z"/>
   <path class="fil1" d="M800.49 2450.71c16.28,-6.87 44.75,-27.32 62.34,-37.39 63.68,-36.42 140.78,-65.18 210.53,-90.79 64.9,-23.84 226.54,-73.94 273.28,-130.66 22.15,-26.89 20.5,-33.1 22.83,-76.83 1.77,-33.1 3.15,-62.4 2.21,-96.08 -1.92,-68.21 -9.46,-29.6 -71.62,-129.81 -27.6,-44.5 -44.98,-84.37 -61.89,-139.89 -9.76,-32.06 -53.48,-24.71 -84.01,-118.25 -16.63,-50.99 -27.22,-117.28 -7.16,-169.5 14.58,-37.95 27.35,-26.3 17.21,-69.79 -89.2,-382.6 1.89,-753.27 495.81,-753.42 95.66,-0.03 194.81,20.92 260.14,89.68 24.94,26.24 345.79,37.11 253.65,568.68 -4.89,28.25 -10.67,54.54 -17.34,81.7 -13.69,55.78 -13.09,28.95 7.56,75.04 23.18,51.77 13.99,121.1 -2.46,173.3 -27.42,87.03 -74.94,95.61 -83.27,115.33l-25.69 73.69c-23.05,55.12 -59.5,111.44 -98.88,154.49 -14.44,15.77 -10.3,15.11 -10.5,41.88 -0.25,33.51 -0.22,65.85 1.1,99.36 1.68,42.68 -1.11,53.43 23.15,79.45 74.53,79.92 292.23,128.76 418.12,187.94 24.72,11.62 41.24,20.36 65.9,33.45 17.98,9.54 51.29,34.87 65.41,38.68 9.46,-14.49 27.33,-30.94 38.68,-43.09l62.64 -77.91c186.23,-246.75 267.1,-556.92 229.56,-872.01 -15.42,-129.39 -53.13,-242.55 -99.76,-348.89 -85.95,-195.97 -235.43,-365.54 -407.7,-486.16 -506.2,-354.44 -1212.68,-254.77 -1600.09,212.69 -70.77,85.39 -119.26,160.43 -174.18,274.34 -101.32,210.18 -137.77,498.91 -81.06,758.68 44.98,206.05 168.75,449.09 315.49,582.09z"/>
  </g>
  <g id="_2889753199040">
   <path class="fil2" d="M1730.41 455.32l-131.77 0c-6.62,2.75 -55.43,9.44 -68.49,12.32 -218.5,48.22 -391.96,210.12 -457.85,413.92 -32.05,99.14 -30.43,174.65 -30.43,283.26l87.4 -0.05c0.67,-92.44 -0.64,-172.75 28.29,-256.1 31.77,-91.52 77.55,-161.16 141.02,-219.47 40.36,-37.09 76.26,-65.82 127.71,-90.78 314.85,-152.71 652.76,21.62 748.15,308.03 29.05,87.22 26.03,161.94 28.86,257.43l88.11 0.99c-0.72,-108.08 0.02,-183.54 -31.39,-282 -57.68,-180.84 -208.22,-337.89 -396.88,-398.56 -21.72,-6.99 -40.17,-11.92 -62.75,-17.25l-69.98 -11.74z"/>
   <path class="fil2" d="M1227.64 825.34l99 -56.52c34,-17.53 68.9,-33.49 108.01,-47.48 93.94,-33.6 159.14,-44.65 269.62,-42.6 144.88,2.69 282.62,72.15 382.24,161.05 12.64,11.28 27.22,30.14 40.4,37.04 -8.5,-32.35 -45.12,-92.98 -62.91,-115.46 -32,-40.45 -52.23,-60.63 -91.07,-91.9 -62.9,-50.64 -159.16,-93.2 -268.66,-100.98 -130.29,-9.25 -254.87,27.61 -351.49,106.61 -33.64,27.5 -64.46,57.68 -89.74,93.24 -8.01,11.27 -31.14,44.01 -35.4,57z"/>
   <path class="fil2" d="M2250.99 1414.9l-0.02 215.88c65.78,1.36 113.14,-23.99 144.35,-59.67 35.67,-40.77 30.75,-96.01 30.49,-158.09 -0.28,-68.47 4.08,-108.93 -35.85,-152.87 -28.89,-31.8 -75.67,-53 -138.98,-55.32l0.01 210.07z"/>
   <path class="fil2" d="M1080.35 1630.33l1.26 -423.48c-58.01,-4.14 -114.23,25.23 -139.8,53.33 -15.63,17.18 -31.31,39.27 -31.22,64.2l-0.06 188.6c-0.58,56.39 92.87,128.51 169.82,117.35z"/>
   <path class="fil2" d="M1451.03 1988.01c3.89,25.68 25.89,50.4 53.68,51.69 25.01,1.15 197.02,1.78 213.3,-0.6 10.34,-1.52 25.39,-16.73 30.3,-24.02 17.17,-25.49 18.87,-88.51 -45.83,-93.24 -33.27,-2.43 -185.64,-5.11 -211.61,1.43 -20.87,5.25 -44.12,36.53 -39.84,64.74z"/>
   <path class="fil2" d="M2139.52 1448.83c0.11,56.99 -3.51,112.6 38.48,153.62 7.37,7.2 24.44,25.04 38.08,27.37 1.18,-66.26 5.82,-367.08 -0.63,-419.81 -19.35,-2.14 -66.32,51.66 -71.84,86.31 -6.68,41.95 -4,108.06 -4.09,152.51z"/>
   <path class="fil2" d="M1116.64 1630.19c25.04,-8.96 58.34,-47.79 68.9,-76.39 10.92,-29.53 8.39,-98.62 7.95,-133.26 -0.43,-32.78 2.39,-107.7 -6.86,-134.32 -8.74,-25.15 -25.68,-46.11 -44.62,-62.81 -4.86,-4.29 -14.87,-12.5 -22.84,-14.36 -5.16,66.51 -2.66,141.86 -2.75,209.62 -0.09,69.16 -2.51,142.9 0.22,211.52z"/>
   <path class="fil2" d="M1788.7 1957.47l2.48 43.49c106.27,-12.72 215.13,-60.77 280.92,-109.56 41.94,-31.1 67.34,-55.78 100.09,-92.75 14.83,-16.74 69.88,-94.28 74.61,-120.42 -14.61,-1.44 -29.05,-3.77 -44.34,-1.3 -25.63,47.86 -60.02,96.97 -100.68,133.52 -4.31,3.87 -6.74,7.88 -11.2,11.87 -46.59,41.59 -101.06,73.57 -163.66,97.93 -47.62,18.52 -86.69,24.93 -138.22,37.22z"/>
   <path class="fil2" d="M841.47 1348.61l0 140.07c41.89,27.16 33.44,-44.64 33.41,-70.01 -0.03,-17.13 1.01,-39.07 -0.85,-55.43 -1.13,-9.98 -4.09,-14.86 -10.87,-18.29 -10.05,-5.09 -14.98,0.35 -21.69,3.66z"/>
   <path class="fil2" d="M2484.28 1492.76l0 -148.12c-35.93,-12.13 -27.45,47.8 -27.5,72.15 -0.03,16.76 -0.3,34.03 0.41,50.75 0.86,20.27 3.48,28.18 27.09,25.22z"/>
  </g>
 </g>
</svg>
